<svg xmlns="http://www.w3.org/2000/svg" id="Layer_1" data-name="Layer 1" viewBox="0 0 750.88 334.6"><defs><style>.cls-1,.cls-2{fill:#0071bb;}.cls-1{fill-rule:evenodd;}</style></defs><path class="cls-1" d="M612.34,211.27c-19.94,15.6-55.42,28.56-69,17.14,4.85-2.4,13.89-14,23.4-25.63,6.53-6.34,12.59-17.6,20.48-24.92,25.55-23.67,57.15,8.34,25.11,33.41ZM750.64,48.55c.33,8.16.27,16.19.12,24-.55,27.55-.73,55.18-1,82.74-.16,19.12-.2,40.09-.83,56.14-1.22,30.7-4.6,59.33-15.58,88.3-2.11,4.87-3.86,10.74-7.15,15-5.81,7.5-5.15-1.19-5-5.33.78-23.49,4.47-47,5-70.76.79-38.6.55-77.3.43-115.91,0-9.95,0-12.93,2-20.6C734,94.41,742,58.67,747.94,47.94c.76-1.6,2.37-1.74,2.7.61ZM707.39,179.63c-4.92-12.15-20.94-34.93-35.5-27-8.29,3.13-19.23,41-21.49,52a67,67,0,0,0-1.29,9.45c-.65,10.82.87,19.27,9.29,25.76,12,9.23,22.29,3.09,27.55-.22,2.72-1.72,4.66-2,7.4.4,1.88,1.66,3.17,5,2.26,11.2-2.81,9.46-10.92,18.89-16.24,23-4.6,3.08-83,47.53-61.81,46.31,3.7-1.19,14.81-1.62,28.66-6.15,10.61-2.37,24.23-7.48,39.93-12.73,12.08-15.89,26.75-69.81,26.59-92.79a80.14,80.14,0,0,0-5.35-29.24ZM419.09.45h0c-.23-1.21-2.08,0-3,3.88-5.86,26.59-18,48.71-18.13,76.2-.25,52.38-.29,104.9-1.22,157.24.17,12.27,1.34,32.74,6,49.82,12.76,47.22,56.5,38.92,74,.47,2.35-3.41,7.57-16,11.3-25.85,4-10.67.72-7.14,3.82,1.63,6.22,17.6,23.53,24.73,39.83,25.58a69.22,69.22,0,0,0,24-3.27c52.9-16.4,103.24-89,81.35-130.11-12.65-22-32.13-9.5-47.75,6.83-16,16.7-28,37.65-44.4,54a54.6,54.6,0,0,1-12.12,9.32c-19.1-5.94-24.33-20.07-28.25-21.31-14.72,39.18-72.93,88.61-86.9,14.32C415,205.36,416.11,190.28,416,179c-.49-47.61.88-95.12,2.73-142.7.26-6.6,3-31.92.36-35.84ZM324.8,9.24c12.4,9.55,28.43,29.33,41.77,35.24-9.75,14.28-20.88,29.28-33.16,42.1-3.92.94-6.45,0-12-4.93-7.8-7.1-19.06-14.94-27.51-29.08,11.38-18.9,30.85-41.87,30.86-43.33ZM340,113c6.92-1.42,17.26,4.72,21.15,9.84,13.29,16.36,17.09,39.72,15.14,61.09a117.36,117.36,0,0,1-1.38,14.38c-10.1,74.26-65.79,104.55-127.82,121.44C183.52,337.05,120.92,336.89,75.8,331c-16.87-2.2-32.2-4.54-44.54-9.82-47.45-20.27-29.54-114.85-19.1-154.94,1.52-9,5.28-5.58,4.41,0C13.94,212.13,4,245.6,50.63,259.7c76.53,23.17,234.57,16.11,303.53-34.57,14.1-9.39,9.78-20.6-.1-25.52-2.76-2.2-7.62,1.66-8.77,2.38-7.4,4.09-22.61,4.25-29.25-4.78-7.35-5.39-5.41-24.58-3.53-32.59,7.49-24,6.09-19.89,9.63-35.67C324.93,122.89,330.74,113.69,340,113Z"></path><path class="cls-2" d="M631.21,54.75c-.71.21-1.11.43-1.21.65l-.15.26c-.23.44-.44.84-.61,1.2l-1.82,3.75L616.5,65.09l-17.36,7.12-1.79.8-10.5,4.66-11.33,5q0,1.32,6.44,2.82c1.7.39,3.33.7,4.89.95a44.88,44.88,0,0,0,9.07.6l1.43-.08,3.82-.22a80.71,80.71,0,0,0,11.88-4.18c1.21-.51,2.36-1,3.45-1.57a42.15,42.15,0,0,0,11.16-7.49,12,12,0,0,0,2.19-4,23.45,23.45,0,0,0,.85-3.29l.46-2.28a8.61,8.61,0,0,0,.47-2.29l.31-3.26V55.24c0-.21-.14-.32-.44-.33Z"></path><path class="cls-2" d="M627.21,44l2.64,1,1.7.65q.76-.64,3.19-5.86c1.62-3.47,2.43-5.49,2.43-6-.1-.76-1.44-1.72-4-2.88-1.31-.58-2.4-1-3.28-1.31a6.86,6.86,0,0,0-2-.44c-.61.43-1.69,2.36-3.26,5.78s-2.26,5.46-2.06,6.12C623.17,42.06,624.71,43.05,627.21,44Z"></path><path class="cls-2" d="M586.85,35.81A12.88,12.88,0,0,0,590.36,37l4.35.86a27.35,27.35,0,0,0,2.64-5.18l.54-1.26c1.62-3.77,2.44-5.93,2.44-6.47s-1.08-1.25-3-1.84l-1.07-.3A15.23,15.23,0,0,0,591,22c-.6.54-1.69,2.67-3.26,6.37-.35.84-.66,1.6-.92,2.28-.91,2.33-1.29,3.73-1.13,4.21A3.15,3.15,0,0,0,586.85,35.81Z"></path><path class="cls-2" d="M652.36,96.08c-.8.1-1.2.32-1.2.64l-1.37,2.45c-.6,1.08-1.11,2.06-1.51,2.93-2.21.86-4.27,1.66-6.17,2.42l-12.26,5-9.7,4-3.65,1.62-19.15,8.5-.83.36c0,.31.28.63.83,1a22.12,22.12,0,0,0,5.62,1.86,53.52,53.52,0,0,0,13.53,1.57l.42,0,5.26-.3q3.52-1,7.67-2.52c1.36-.51,2.76-1.06,4.21-1.66q9.33-3.87,14.61-9.06a15.56,15.56,0,0,0,3-7.34l.47-2.29a8.8,8.8,0,0,0,.46-2.28l.31-3.26,0-3.11A.59.59,0,0,0,652.36,96.08Z"></path><path class="cls-2" d="M598.17,102.79V102a12.2,12.2,0,0,0-.82-1,6.8,6.8,0,0,0-1.42-1.26Q591.3,96,589.8,95.55A16.11,16.11,0,0,0,586.85,94a10.22,10.22,0,0,0-3.65-.75c-.71.87-1.26,1.57-1.66,2.12l-3.49,7.17-2.27,5a5.1,5.1,0,0,0,.44,1.8l.44,1.14c-.91,1.3-1.86,2-2.86,2l-4.21.63-4.81.62-5.9,1.24v-.13l-4.36.79-.45-.33-.41-7.35-1-12.26-1.44-11.12a5.41,5.41,0,0,0-3.45-.67,38.66,38.66,0,0,0-8.87,1.58c-.88.26-1.71.52-2.49.79a22.88,22.88,0,0,0-7.06,3.57q-2.94,2.43-6.28,9-3.63,7.17-3.94,9.12l-.16,1.31v1.31a15.28,15.28,0,0,0,1.17,6.38,10.52,10.52,0,0,0,8.69,3.8l2.85-.14,3-.47,1.73-.47,7.89-2.1a2.6,2.6,0,0,0,.76-1l1.21-2a19.65,19.65,0,0,1,.72,5.72l0,9.64.14,1.47a2.6,2.6,0,0,0,.74.33l11-2.06v-.08l6.5-1.19a76.5,76.5,0,0,0,10.07-2.23,47.26,47.26,0,0,0,8-3.06l3.32-1.94.18-.12,3.44-2.47a30.14,30.14,0,0,0,7.06-11.77A24.41,24.41,0,0,0,598.17,102.79Zm-52.6.84-1.5.64a24.28,24.28,0,0,1-5.41,1.44l-1.66.48-.59,0-1.51.11-.9.16h-2.26a9.84,9.84,0,0,1-3.75-.6,2.13,2.13,0,0,1-1.49-1.56,5,5,0,0,1,1.06-1.63l1.5-1.29a61.61,61.61,0,0,1,7.35-2.66,27,27,0,0,1,7.39-1.18c1.3,0,2.1.23,2.4.67l.12,4.57A2.67,2.67,0,0,1,545.57,103.63Z"></path><path class="cls-2" d="M657.75,44.18l-1-.17c-1.31.32-2.36.53-3.16.64l-2.11,1a39.59,39.59,0,0,0-6.95,9.6,23.05,23.05,0,0,0-2.12,4.72l-.47,2.45v2.12l.14,2.13A7.87,7.87,0,0,0,644,69.43a5.16,5.16,0,0,0,2.7,1.32l2.25.18a9.28,9.28,0,0,0,3.46-.47,13,13,0,0,0,3.45-1.13c1.4,1,2.1,2,2.09,3q-2,2.76-10.84,6.63l-2.56,1.13-6.16,2.09a66.27,66.27,0,0,1-8.5,2.39l-.83.17c-2.8.85-5.16,1.55-7.06,2.08l-5.46,1.61-6,1.76-6.46,1.76-3,1.62q2.25,2,10.49,4,2.7.63,5,1.07a39.13,39.13,0,0,0,9.3,1l1.8-.15,2.25-.61L640.08,96a42.47,42.47,0,0,0,10.68-4,32.22,32.22,0,0,0,8.44-6.81,67.67,67.67,0,0,0,3.65-9.62l.61-2.12.31-1.63.92-4.24a32.71,32.71,0,0,0,.63-6.21Q665.09,45.36,657.75,44.18Z"></path><path class="cls-2" d="M519.74,66.2a133,133,0,0,1,16.67-23.56,184,184,0,0,1,20.36-19.87c3.32-2.77,6.52-5.26,9.49-7.42l.64,17.28.26,8.44.11,8.31.4,11,.69,13.91.74.69,12-5.08,5.71-2.12,3.21-1.19v.08l7.29-2.87,1-.4,8.27-3.75c3.62-1.63,5.47-2.61,5.57-3a14.33,14.33,0,0,0,4.17-6.36l.15-.46A22.2,22.2,0,0,0,617.81,43l-.3-1.58-1,.39L597.81,49l-.46.17-6.81,2.55V51.6L586.85,53,580,55.6l-1.81.32L575.32,2.7V1.9L575,1.43c-5,2.48-13.25,7.9-22.27,15.45A188.58,188.58,0,0,0,536.41,32.3a139.64,139.64,0,0,0-20.83,28.19c-9.56,17.62-13.73,37.57-5.34,57.66a73.46,73.46,0,0,0,7.91,14.15l1.26-1.59a52.22,52.22,0,0,1-5.54-10C506.2,102.37,510.43,83.35,519.74,66.2Z"></path></svg>